<?xml version="1.0" standalone="no"?>
<!DOCTYPE svg PUBLIC "-//W3C//DTD SVG 20010904//EN"
 "http://www.w3.org/TR/2001/REC-SVG-20010904/DTD/svg10.dtd">
<svg version="1.0" xmlns="http://www.w3.org/2000/svg"
 width="1024.000000pt" height="1024.000000pt" viewBox="0 0 1024.000000 1024.000000"
 preserveAspectRatio="xMidYMid meet">
<metadata>
Created by potrace 1.11, written by Peter Selinger 2001-2013
</metadata>
<g transform="translate(0.000000,1024.000000) scale(0.100000,-0.100000)"
fill="#000000" stroke="none">
<path d="M2496 5128 c1 -953 2 -1740 3 -1748 1 -13 29 -15 194 -14 105 1 194
2 197 3 3 0 5 631 5 1401 0 770 2 1400 5 1400 3 0 13 -17 22 -37 38 -87 416
-937 498 -1118 10 -22 75 -168 145 -325 69 -157 135 -304 146 -327 10 -24 100
-226 200 -450 231 -520 241 -543 248 -544 3 -1 120 -2 259 -3 l252 -1 0 1747
0 1748 -195 0 -195 0 -1 -1407 c0 -1062 -3 -1402 -12 -1383 -19 43 -72 159
-145 320 -38 85 -84 187 -102 225 -18 39 -86 189 -152 335 -66 146 -136 299
-155 340 -19 41 -48 104 -64 140 -15 36 -167 371 -337 745 l-310 680 -253 3
-254 2 1 -1732z"/>
<path d="M6206 6833 c-4 -16 -15 -57 -26 -93 -70 -236 -141 -477 -144 -490 -5
-18 -74 -253 -163 -550 -41 -136 -47 -156 -168 -570 -64 -217 -186 -631 -271
-920 -218 -737 -244 -827 -244 -837 0 -5 102 -8 227 -8 l227 0 7 25 c15 54
144 493 181 620 22 74 44 151 49 170 5 19 12 42 14 50 3 8 20 68 39 133 19 65
36 121 39 124 4 4 579 6 908 4 l75 -1 48 -167 c27 -93 55 -188 62 -213 7 -25
29 -99 48 -165 118 -406 167 -569 172 -574 3 -3 107 -6 231 -6 l225 0 -5 25
c-7 35 -10 44 -40 140 -14 47 -41 139 -61 205 -19 66 -52 181 -74 255 -72 243
-149 505 -155 525 -2 11 -27 94 -55 185 -27 91 -81 273 -120 405 -268 907
-325 1099 -347 1170 -13 44 -47 159 -75 255 -29 96 -62 209 -74 250 l-22 75
-251 3 -251 2 -6 -27z m294 -583 c12 -47 23 -92 25 -100 2 -8 12 -49 23 -90
11 -41 37 -137 56 -212 20 -76 52 -200 72 -275 19 -76 44 -169 54 -208 57
-215 130 -503 130 -511 0 -7 -692 -12 -782 -5 -14 1 -15 6 -8 29 15 47 38 130
109 397 63 234 90 335 151 560 10 39 26 97 35 130 9 33 34 128 57 210 22 83
41 156 41 163 1 30 17 -9 37 -88z"/>
</g>
</svg>
